<svg width="589" height="513" viewBox="0 0 589 513" fill="none" xmlns="http://www.w3.org/2000/svg">
<path d="M458.23 68.9143C401.061 42.4594 390.229 90.5593 387.822 112.806C385.415 135.052 369.768 160.905 330.653 157.298C291.538 153.69 294.546 109.799 301.768 80.3381C308.387 51.4781 294.546 -0.830558 241.59 0.37194C188.634 1.57444 181.413 37.6494 194.05 89.3568C206.687 141.064 262.051 194.575 265.059 225.84C268.068 257.105 234.369 266.124 195.855 249.89C147.713 228.847 132.067 100.179 80.916 84.5468C29.7654 68.9143 -3.33265 101.983 0.879777 157.899C5.09221 213.815 204.28 311.819 216.917 352.704C229.555 393.589 197.661 415.234 157.943 359.919C117.624 305.205 50.8272 308.813 29.765 337.071C8.70287 365.33 13.5171 406.816 59.2521 410.424C104.987 414.031 189.236 453.112 214.51 463.334C239.785 473.555 232.3 486.43 249.413 499.409C266.526 512.387 349.388 521.766 370.37 499.409C391.353 477.051 356.529 469.346 379.999 459.726C403.468 450.707 460.62 459.726 504.566 474.757C542.876 487.861 588.213 480.77 588.213 450.106C588.213 420.044 552.107 375.551 524.425 390.583C496.743 405.614 441.38 410.424 431.15 405.614C421.521 400.804 404.671 369.539 457.628 352.103C510.584 334.666 565.947 326.85 570.16 296.186C574.372 265.523 562.337 234.258 541.876 233.055C520.814 231.853 484.708 242.074 464.247 280.554C443.787 319.034 401.663 328.053 382.406 309.414C363.149 290.775 364.352 224.638 378.193 201.189C392.034 177.74 431.759 154.996 456.424 136.855C474.33 123.687 488.92 82.7431 458.23 68.9143Z" fill="#FFCC49"/>
</svg>
